<?xml version="1.0" standalone="no"?>
<!DOCTYPE svg PUBLIC "-//W3C//DTD SVG 20010904//EN"
 "http://www.w3.org/TR/2001/REC-SVG-20010904/DTD/svg10.dtd">
<svg version="1.0" xmlns="http://www.w3.org/2000/svg"
 width="512.000000pt" height="512.000000pt" viewBox="0 0 512.000000 512.000000"
 preserveAspectRatio="xMidYMid meet">
<metadata>
Created by potrace 1.11, written by Peter Selinger 2001-2013
</metadata>
<g transform="translate(0.000000,512.000000) scale(0.100000,-0.100000)"
fill="#000000" stroke="none">
<path d="M2260 5105 c-921 -112 -1707 -705 -2064 -1558 -262 -625 -262 -1349
0 -1974 260 -620 757 -1117 1377 -1377 625 -262 1349 -262 1974 0 620 260
1117 757 1377 1377 262 625 262 1349 0 1974 -260 620 -757 1117 -1377 1377
-219 92 -452 153 -696 181 -151 18 -444 18 -591 0z m1260 -1475 l0 -300 -477
-2 -478 -3 0 -250 0 -250 438 -3 437 -2 0 -250 0 -250 -440 0 -440 0 2 -267 3
-268 478 -3 477 -2 0 -300 0 -300 -960 0 -960 0 0 1375 0 1375 960 0 960 0 0
-300z"/>
</g>
</svg>
